<svg width="1921" height="621" viewBox="0 0 1921 621" fill="none" xmlns="http://www.w3.org/2000/svg">
<path d="M729.26 11.84L477.89 611.58H313.89L190.19 132.96C182.68 103.48 176.15 92.68 153.31 80.26C116.02 60.03 54.44 41.05 0.26001 29.27L3.94 11.84H267.93C301.58 11.84 331.83 34.24 339.47 72.99L404.8 420.03L566.26 11.83H729.26V11.84ZM1371.84 415.77C1372.5 257.48 1152.96 248.76 1154.47 178.05C1154.94 156.53 1175.43 133.65 1220.28 127.81C1242.51 124.9 1303.76 122.68 1373.23 154.65L1400.48 27.47C1363.15 13.92 1315.12 0.880005 1255.36 0.880005C1102.01 0.880005 994.09 82.4 993.18 199.13C992.19 285.47 1070.21 333.65 1128.99 362.34C1189.46 391.72 1209.75 410.6 1209.52 436.88C1209.09 477.11 1161.29 494.87 1116.62 495.57C1038.64 496.77 993.39 474.47 957.32 457.7L929.2 589.09C965.45 605.72 1032.36 620.23 1101.73 620.96C1264.72 620.96 1371.34 540.45 1371.84 415.77ZM1776.78 611.58H1920.27L1795.02 11.84H1662.58C1632.8 11.84 1607.68 29.18 1596.56 55.84L1363.75 611.58H1526.66L1559 522H1758.05L1776.78 611.58ZM1603.67 399.08L1685.33 173.9L1732.33 399.08H1603.67ZM950.93 11.84L822.64 611.58H667.5L795.84 11.84H950.93Z" fill="white"/>
</svg>
